<svg width="72.9" height="75.2" viewBox="0 0 72.9 75.2" xmlns="http://www.w3.org/2000/svg"><g id="svgGroup" stroke-linecap="round" fill-rule="evenodd" font-size="9pt" stroke="currentcolor" stroke-width="0.25mm" fill="currentcolor" style="stroke:currentcolor;stroke-width:0.25mm;fill:currentcolor"><path d="M 9 74 L 0 74 L 0 0 L 9 0 L 9 30.3 Q 11.8 26.2 16.1 23.5 Q 20.4 20.8 26.2 20.8 Q 35 20.8 39.35 26.1 Q 43.7 31.4 43.7 40.1 L 43.7 74 L 34.7 74 L 34.7 41.1 Q 34.7 35.5 32.1 32.1 Q 29.5 28.7 24.8 28.7 Q 20.2 28.7 16.05 31.95 Q 11.9 35.2 9 39.6 L 9 74 Z" id="0" vector-effect="non-scaling-stroke"/><path style="stroke:#ef5350;fill:#ef5350" d="M 66.2 75.2 Q 63.5 75.2 61.5 73.2 Q 59.5 71.2 59.5 68.5 Q 59.5 65.4 61.3 63.6 Q 63.1 61.8 66.2 61.8 Q 68.8 61.8 70.85 63.8 Q 72.9 65.8 72.9 68.5 Q 72.9 71.5 71 73.35 Q 69.1 75.2 66.2 75.2 Z" id="1" vector-effect="non-scaling-stroke"/></g><style>:root { color: #000; }
@media (prefers-color-scheme: dark) { :root { color: #fff; } }
</style></svg>
